<svg width="105" height="32" viewBox="0 0 105 32" fill="none" xmlns="http://www.w3.org/2000/svg">
<path d="M35.7366 22.1721V9.46263H41.238C42.3758 9.46263 43.3562 9.65024 44.1793 10.0255C45.0024 10.3886 45.6379 10.9151 46.0857 11.6051C46.5336 12.295 46.7575 13.1181 46.7575 14.0744C46.7575 15.0185 46.5336 15.8355 46.0857 16.5255C45.6379 17.2154 45.0024 17.748 44.1793 18.1233C43.3562 18.4864 42.3758 18.6679 41.238 18.6679H37.3707L38.6779 17.3425V22.1721H35.7366ZM38.6779 17.6693L37.3707 16.2713H41.0746C41.9824 16.2713 42.6602 16.0776 43.1081 15.6903C43.5559 15.303 43.7799 14.7643 43.7799 14.0744C43.7799 13.3723 43.5559 12.8276 43.1081 12.4403C42.6602 12.0529 41.9824 11.8593 41.0746 11.8593H37.3707L38.6779 10.4612V17.6693Z" fill="#3D3F48"/>
<path d="M48.8574 22.1721V9.46263H54.3588C55.4966 9.46263 56.4771 9.65024 57.3002 10.0255C58.1233 10.3886 58.7588 10.9151 59.2066 11.6051C59.6545 12.295 59.8784 13.1181 59.8784 14.0744C59.8784 15.0185 59.6545 15.8355 59.2066 16.5255C58.7588 17.2033 58.1233 17.7238 57.3002 18.0869C56.4771 18.4501 55.4966 18.6316 54.3588 18.6316H50.4915L51.7988 17.3425V22.1721H48.8574ZM56.9371 22.1721L53.7597 17.5604H56.9007L60.1144 22.1721H56.9371ZM51.7988 17.6693L50.4915 16.2895H54.1954C55.1033 16.2895 55.7811 16.0958 56.229 15.7084C56.6768 15.309 56.9007 14.7643 56.9007 14.0744C56.9007 13.3723 56.6768 12.8276 56.229 12.4403C55.7811 12.0529 55.1033 11.8593 54.1954 11.8593H50.4915L51.7988 10.4612V17.6693Z" fill="#3D3F48"/>
<path d="M68.382 22.39C67.3773 22.39 66.4453 22.2266 65.5859 21.8998C64.7386 21.573 64.0002 21.113 63.3708 20.5199C62.7535 19.9268 62.2693 19.2308 61.9183 18.4319C61.5794 17.633 61.4099 16.7615 61.4099 15.8174C61.4099 14.8732 61.5794 14.0017 61.9183 13.2029C62.2693 12.404 62.7596 11.708 63.389 11.1149C64.0184 10.5218 64.7568 10.0618 65.6041 9.73497C66.4514 9.40816 67.3713 9.24475 68.3638 9.24475C69.3685 9.24475 70.2884 9.40816 71.1236 9.73497C71.9709 10.0618 72.7032 10.5218 73.3206 11.1149C73.95 11.708 74.4402 12.404 74.7912 13.2029C75.1423 13.9896 75.3178 14.8611 75.3178 15.8174C75.3178 16.7615 75.1423 17.6391 74.7912 18.4501C74.4402 19.249 73.95 19.9449 73.3206 20.5381C72.7032 21.1191 71.9709 21.573 71.1236 21.8998C70.2884 22.2266 69.3746 22.39 68.382 22.39ZM68.3638 19.8844C68.9327 19.8844 69.4532 19.7876 69.9253 19.5939C70.4095 19.4003 70.8331 19.1219 71.1963 18.7587C71.5594 18.3956 71.8378 17.9659 72.0314 17.4696C72.2372 16.9733 72.3401 16.4226 72.3401 15.8174C72.3401 15.2122 72.2372 14.6614 72.0314 14.1651C71.8378 13.6689 71.5594 13.2392 71.1963 12.876C70.8452 12.5129 70.4276 12.2345 69.9435 12.0408C69.4593 11.8472 68.9327 11.7503 68.3638 11.7503C67.7949 11.7503 67.2684 11.8472 66.7842 12.0408C66.3122 12.2345 65.8946 12.5129 65.5314 12.876C65.1683 13.2392 64.8839 13.6689 64.6781 14.1651C64.4844 14.6614 64.3876 15.2122 64.3876 15.8174C64.3876 16.4105 64.4844 16.9612 64.6781 17.4696C64.8839 17.9659 65.1623 18.3956 65.5133 18.7587C65.8764 19.1219 66.3001 19.4003 66.7842 19.5939C67.2684 19.7876 67.7949 19.8844 68.3638 19.8844Z" fill="#3D3F48"/>
<path d="M85.3169 22.39C83.5134 22.39 82.1032 21.8877 81.0865 20.883C80.0697 19.8784 79.5613 18.444 79.5613 16.58V9.46263H82.5027V16.471C82.5027 17.6814 82.7508 18.553 83.2471 19.0855C83.7434 19.6181 84.4394 19.8844 85.3351 19.8844C86.2308 19.8844 86.9268 19.6181 87.4231 19.0855C87.9193 18.553 88.1675 17.6814 88.1675 16.471V9.46263H91.0725V16.58C91.0725 18.444 90.5641 19.8784 89.5474 20.883C88.5306 21.8877 87.1205 22.39 85.3169 22.39Z" fill="#3D3F48"/>
<path d="M93.9791 22.1721V9.46263H99.4805C100.618 9.46263 101.599 9.65024 102.422 10.0255C103.245 10.3886 103.88 10.9151 104.328 11.6051C104.776 12.295 105 13.1181 105 14.0744C105 15.0185 104.776 15.8355 104.328 16.5255C103.88 17.2154 103.245 17.748 102.422 18.1233C101.599 18.4864 100.618 18.6679 99.4805 18.6679H95.6132L96.9204 17.3425V22.1721H93.9791ZM96.9204 17.6693L95.6132 16.2713H99.3171C100.225 16.2713 100.903 16.0776 101.351 15.6903C101.798 15.303 102.022 14.7643 102.022 14.0744C102.022 13.3723 101.798 12.8276 101.351 12.4403C100.903 12.0529 100.225 11.8593 99.3171 11.8593H95.6132L96.9204 10.4612V17.6693Z" fill="#3D3F48"/>
<path d="M0 13.0435C0 6.32005 5.45042 0.869629 12.1739 0.869629H18.9564C25.1996 0.869629 30.2607 5.93074 30.2607 12.1739C30.2607 18.4171 25.1996 23.4782 18.9564 23.4782H14.9565V15.8261H18.9564C20.9735 15.8261 22.6086 14.191 22.6086 12.1739C22.6086 10.1569 20.9735 8.52177 18.9564 8.52177H12C9.59872 8.52177 7.65214 10.4684 7.65214 12.8696V19.1304C7.65214 21.5317 9.59872 23.4782 12 23.4782H14.9565V31.1304H12.1739C5.45043 31.1304 0 25.6799 0 18.9565V13.0435Z" fill="#324FBE"/>
</svg>
